<svg fill="none" height="101" viewBox="0 0 87 101" width="87" xmlns="http://www.w3.org/2000/svg" xmlns:xlink="http://www.w3.org/1999/xlink"><radialGradient id="a" cx="0" cy="0" gradientTransform="matrix(28.5912 0 0 28.8651 29.624 50.8759)" gradientUnits="userSpaceOnUse" r="1"><stop offset="0" stop-color="#5d9df6"/><stop offset="1" stop-color="#006fff"/></radialGradient><clipPath id="b"><path d="m29.624 36.4434h28.5912v28.8651h-28.5912z"/></clipPath><g clip-path="url(#b)"><path d="m58.2151 50.8759c0-7.9709-6.4003-14.4325-14.2956-14.4325-7.8952 0-14.2955 6.4616-14.2955 14.4325s6.4003 14.4325 14.2955 14.4325c7.8953 0 14.2956-6.4616 14.2956-14.4325z" fill="url(#a)"/><path d="m39.073 46.8467c2.6767-2.6458 7.0164-2.6458 9.6931 0l.3222.3184c.1338.1323.1338.3468 0 .479l-1.102 1.0893c-.0669.0662-.1754.0662-.2424 0l-.4433-.4382c-1.8673-1.8458-4.8948-1.8458-6.7621 0l-.4748.4693c-.0669.0661-.1754.0661-.2423 0l-1.102-1.0893c-.1338-.1323-.1338-.3468 0-.479zm11.9721 2.2527.9808.9694c.1338.1323.1338.3468 0 .4791l-4.4224 4.3714c-.1338.1323-.3508.1323-.4846 0l-3.1387-3.1025c-.0335-.0331-.0877-.0331-.1212 0l-3.1387 3.1025c-.1338.1323-.3508.1323-.4846 0l-4.4225-4.3714c-.1338-.1323-.1338-.3468 0-.4791l.9808-.9695c.1338-.1323.3508-.1323.4846 0l3.1388 3.1026c.0335.0331.0877.0331.1212 0l3.1386-3.1026c.1338-.1323.3508-.1323.4846 0l3.1388 3.1026c.0335.0331.0877.0331.1212 0l3.1387-3.1025c.1338-.1323.3508-.1323.4846 0z" fill="#fff"/></g><g stroke="#3f3d56"><path d="m54.8929 7.28844-10.3572-6.24742-10.3571 6.24742m20.7143 0v13.01546l-10.3572 5.7268m10.3572-18.74226-10.3572 5.72676m0 13.0155-10.3571-5.7268v-13.01546m10.3571 18.74226v-13.0155m-10.3571-5.72676 10.3571 5.72676"/><path d="m54.8929 81.2167-10.3572-6.2475-10.3571 6.2475m20.7143 0v13.0154l-10.3572 5.7268m10.3572-18.7422-10.3572 5.7268m0 13.0154-10.3571-5.7268v-13.0154m10.3571 18.7422v-13.0154m-10.3571-5.7268 10.3571 5.7268"/><path d="m85.9643 22.9071-10.3572-6.2474-10.3571 6.2474m20.7143 0v13.0155l-10.3572 5.7268m10.3572-18.7423-10.3572 5.7268m0 13.0155-10.3571-5.7268v-13.0155m10.3571 18.7423v-13.0155m-10.3571-5.7268 10.3571 5.7268"/><path d="m85.9643 60.392-10.3572-6.2475-10.3571 6.2475m20.7143 0v13.0154l-10.3572 5.7268m10.3572-18.7422-10.3572 5.7268m0 13.0154-10.3571-5.7268v-13.0154m10.3571 18.7422v-13.0154m-10.3571-5.7268 10.3571 5.7268"/><path d="m21.75 22.9071-10.3572-6.2474-10.35709 6.2474m20.71429 0v13.0155l-10.3572 5.7268m10.3572-18.7423-10.3572 5.7268m0 13.0155-10.35709-5.7268v-13.0155m10.35709 18.7423v-13.0155m-10.35709-5.7268 10.35709 5.7268"/><path d="m21.75 60.392-10.3572-6.2475-10.35709 6.2475m20.71429 0v13.0154l-10.3572 5.7268m10.3572-18.7422-10.3572 5.7268m0 13.0154-10.35709-5.7268v-13.0154m10.35709 18.7422v-13.0154m-10.35709-5.7268 10.35709 5.7268"/></g></svg>