<svg fill="none" height="93" viewBox="0 0 135 93" width="135" xmlns="http://www.w3.org/2000/svg"><g fill="#3b99fc"><path d="m5.22311 47.0647c2.81399 0 5.09519-2.2874 5.09519-5.109s-2.2812-5.109-5.09519-5.109-5.09518 2.2874-5.09518 5.109 2.28119 5.109 5.09518 5.109z"/><path d="m51.2342 12.6951c2.814 0 5.0952-2.2874 5.0952-5.10903s-2.2812-5.10902-5.0952-5.10902-5.0952 2.28739-5.0952 5.10902 2.2812 5.10903 5.0952 5.10903z"/><path d="m28.2287 92.8911c8.6126 0 15.5944-7.0008 15.5944-15.6367s-6.9818-15.6367-15.5944-15.6367c-8.6125 0-15.5943 7.0008-15.5943 15.6367s6.9818 15.6367 15.5943 15.6367z"/></g><path d="m52.9722 9.34373 8.7852 10.07557 35.4247-14.00573.1262.3204-35.3108 13.96063 28.4451 32.6229 29.7454-11.7601.126.3204-29.6313 11.7151 25.8133 29.6041-.259.2267-25.8936-29.6967-59.8122 23.6478m22.1824-66.80431 8.7045 9.98291-54.01844 21.3571m.12596.3204 54.13258-21.4021 28.4451 32.6229-59.6981 23.6025" stroke="#000"/><path d="m134.919 35.144h-29.336v11.3018h29.336z" fill="#3f3d56"/><path d="m129.746 38.1631h-18.991v.9289h18.991z" fill="#f2f2f2"/><path d="m129.746 40.3301h-18.991v.9289h18.991z" fill="#f2f2f2"/><path d="m129.746 42.4976h-18.991v.9289h18.991z" fill="#f2f2f2"/><path d="m111.913 0h-29.3357v11.3018h29.3357z" fill="#3f3d56"/><path d="m106.741 3.01904h-18.9914v.92891h18.9914z" fill="#f2f2f2"/><path d="m106.741 5.18652h-18.9914v.92891h18.9914z" fill="#f2f2f2"/><path d="m106.741 7.35352h-18.9914v.92891h18.9914z" fill="#f2f2f2"/><path d="m131.059 76.6353h-29.336v11.3017h29.336z" fill="#3f3d56"/><path d="m125.886 79.6543h-18.991v.9289h18.991z" fill="#f2f2f2"/><path d="m125.886 81.8218h-18.991v.9289h18.991z" fill="#f2f2f2"/><path d="m125.886 83.9893h-18.991v.9289h18.991z" fill="#f2f2f2"/></svg>