<svg fill="none" height="106" viewBox="0 0 137 106" width="137" xmlns="http://www.w3.org/2000/svg" xmlns:xlink="http://www.w3.org/1999/xlink"><clipPath id="a"><path d="m0 0h137v106h-137z"/></clipPath><g clip-path="url(#a)"><path d="m116.749.0654297h-71.3108c-.6667.0009394-1.3059.2649263-1.7774.7340843-.4715.469156-.7368 1.105206-.7377 1.768696v27.38329c.0009.6635.2662 1.2996.7377 1.7687.4715.4692 1.1107.7332 1.7774.7341h71.3108c.667-.0009 1.306-.2649 1.778-.7341.471-.4691.736-1.1052.737-1.7687v-27.38329c-.001-.66349-.266-1.29954-.737-1.768696-.472-.469158-1.111-.7331453-1.778-.7340843zm2.219 29.8860703c0 .5855-.234 1.1468-.65 1.5608s-.98.6469-1.569.6476h-71.3108c-.5883-.0007-1.1524-.2336-1.5684-.6476-.4161-.414-.6501-.9753-.6508-1.5608v-27.38329c.0007-.58547.2347-1.14675.6508-1.56074.416-.413992.9801-.646884 1.5684-.647596h71.3108c.589.000712 1.153.233604 1.569.647596.416.41399.65.97527.65 1.56074z" fill="#3f3d56"/><path d="m58.3857 24.799c-1.6972 0-3.3562-.5008-4.7674-1.4391-1.4111-.9383-2.5109-2.2718-3.1604-3.8321s-.8194-3.2772-.4883-4.9336 1.1483-3.1778 2.3484-4.372c1.2001-1.19421 2.7291-2.00746 4.3936-2.33693 1.6646-.32948 3.3899-.16038 4.9579.48591s2.9081 1.74072 3.851 3.14492 1.4462 3.0552 1.4462 4.744c-.0026 2.2639-.9075 4.4343-2.5162 6.0351s-3.7898 2.5012-6.0648 2.5038zm0-16.78336c-1.6387 0-3.2405.48353-4.603 1.38944-1.3624.90592-2.4244 2.19352-3.0514 3.70002-.6271 1.5064-.7912 3.1641-.4715 4.7634s1.1087 3.0683 2.2674 4.2213 2.635 1.9382 4.2421 2.2563c1.6072.3181 3.273.1549 4.7869-.4691 1.514-.624 2.8079-1.6808 3.7183-3.0365.9104-1.3558 1.3963-2.9498 1.3963-4.5804-.0025-2.1858-.8762-4.2814-2.4294-5.827-1.5532-1.54558-3.6591-2.41498-5.8557-2.41746z" fill="#3f3d56"/><g fill="#3b99fc"><path d="m110.385 10.813h-34.1757c-.4777.0003-.9367.1845-1.2809.5141s-.5468.779-.5655 1.254c-.0024.024-.0034.0481-.0029.0722.0007.4878.1957.9555.5424 1.3005s.8167.5391 1.3069.5397h34.1757c.491 0 .961-.1938 1.308-.539.347-.3451.542-.8132.542-1.3012 0-.4881-.195-.9562-.542-1.3013s-.817-.539-1.308-.539z"/><path d="m110.385 18.0264h-34.1757c-.4777.0002-.9367.1845-1.2809.5141s-.5468.779-.5655 1.254c-.0024.024-.0034.0481-.0029.0721.0007.4879.1957.9556.5424 1.3006.3467.3449.8167.539 1.3069.5397h34.1757c.491 0 .961-.1939 1.308-.539s.542-.8132.542-1.3013c0-.488-.195-.9561-.542-1.3012s-.817-.539-1.308-.539z"/><path d="m57.4284 19.9908c-.2395.0005-.4725-.0766-.6641-.2195l-.0119-.0089-2.5009-1.9053c-.1158-.0884-.213-.1985-.2861-.3242-.073-.1257-.1205-.2645-.1396-.4084-.0192-.1439-.0096-.2902.028-.4305.0377-.1403.1027-.2718.1915-.387.0887-.1153.1994-.212.3257-.2847s.2658-.1199.4105-.139c.1446-.019.2916-.0095.4326.0279.1409.0375.2731.1023.3889.1906l1.6199 1.236 3.8281-4.9679c.0888-.1152.1995-.2119.3259-.2846.1263-.0726.2658-.1198.4104-.1388.1447-.019.2917-.0094.4327.0281.1409.0375.273.1023.3888.1907l-.0238.0321.0244-.0317c.2336.1787.3864.4422.425.7328.0385.2906-.0403.5846-.2193.8174l-4.5028 5.8434c-.1041.1347-.238.2437-.3913.3185s-.3219.1135-.4926.113z"/></g><path d="m73.8442 36.8711h-71.31101c-.66677.0009-1.30595.2649-1.777419.7341-.471472.4691-.7367606 1.1052-.7377046 1.7687v27.3833c.0009436.6635.2662326 1.2995.7377046 1.7687.471469.4692 1.110649.7331 1.777419.7341h71.31101c.6668-.001 1.3059-.2649 1.7774-.7341s.7368-1.1052.7377-1.7687v-27.3833c-.0009-.6635-.2662-1.2996-.7377-1.7687-.4715-.4692-1.1106-.7332-1.7774-.7341zm2.2192 29.8861c-.0007.5855-.2347 1.1468-.6508 1.5607-.416.414-.98.6469-1.5684.6476h-71.31101c-.58836-.0007-1.15241-.2336-1.568441-.6476-.41603-.4139-.650071-.9752-.650786-1.5607v-27.3833c.000715-.5855.234756-1.1468.650786-1.5608.416031-.414.980081-.6468 1.568441-.6476h71.31101c.5884.0008 1.1524.2336 1.5684.6476.4161.414.6501.9753.6508 1.5608z" fill="#3f3d56"/><path d="m15.4807 61.6042c-1.6972 0-3.3563-.5008-4.7674-1.4391-1.41113-.9383-2.51097-2.2719-3.16045-3.8321-.64947-1.5603-.81941-3.2772-.48831-4.9336s1.14836-3.1779 2.34844-4.372c1.20012-1.1942 2.72902-2.0075 4.39362-2.337 1.6645-.3294 3.3899-.1603 4.9579.486 1.5679.6462 2.9081 1.7407 3.851 3.1449s1.4462 3.0551 1.4462 4.744c-.0026 2.2638-.9075 4.4343-2.5162 6.0351s-3.7898 2.5012-6.0648 2.5038zm0-16.7834c-1.6387 0-3.2405.4835-4.603 1.3895-1.36247.9059-2.42439 2.1935-3.05147 3.7-.62708 1.5064-.79116 3.1641-.47148 4.7634.31968 1.5992 1.10877 3.0683 2.26746 4.2213s2.63499 1.9382 4.24209 2.2563c1.6072.3181 3.273.1549 4.7869-.4692 1.5139-.624 2.8079-1.6807 3.7183-3.0365.9103-1.3558 1.3963-2.9497 1.3963-4.5803-.0025-2.1858-.8762-4.2814-2.4294-5.827-1.5533-1.5456-3.6592-2.415-5.8557-2.4175z" fill="#3f3d56"/><path d="m67.4803 47.6182h-34.176c-.4777.0002-.9367.1845-1.2809.5141s-.5469.779-.5655 1.254c-.0024.024-.0034.0481-.0029.0721.0006.4879.1957.9556.5424 1.3006.3467.3449.8166.539 1.3069.5397h34.176c.4905 0 .9609-.1939 1.3077-.539s.5417-.8132.5417-1.3013c0-.488-.1949-.9561-.5417-1.3012-.3468-.3452-.8172-.539-1.3077-.539z" fill="#3b99fc"/><path d="m67.4803 54.8325h-34.176c-.4777.0003-.9367.1845-1.2809.5142-.3442.3296-.5469.779-.5655 1.254-.0024.0239-.0034.048-.0029.0721.0006.4879.1957.9555.5424 1.3005s.8166.5391 1.3069.5398h34.176c.4905 0 .9609-.1939 1.3077-.539.3468-.3452.5417-.8132.5417-1.3013s-.1949-.9562-.5417-1.3013-.8172-.539-1.3077-.539z" fill="#3b99fc"/><path d="m14.5233 56.7965c-.2394.0005-.4725-.0766-.664-.2195l-.0119-.0089-2.5009-1.9054c-.1159-.0883-.2131-.1984-.2861-.3241-.0731-.1257-.1205-.2645-.1397-.4084-.0191-.144-.0096-.2903.0281-.4305.0377-.1403.1027-.2718.1915-.3871.0887-.1152.1994-.212.3257-.2846.1263-.0727.2658-.12.4104-.139.1447-.0191.2917-.0096.4326.0279.141.0375.2732.1022.389.1905l1.6199 1.2361 3.8281-4.9679c.0888-.1153.1995-.212.3258-.2846.1264-.0726.2659-.1198.4105-.1388.1447-.019.2917-.0095.4326.0281.141.0375.2731.1023.3889.1906l-.0238.0322.0244-.0317c.2336.1786.3864.4422.425.7328.0385.2906-.0404.5846-.2193.8174l-4.5028 5.8434c-.1041.1347-.238.2436-.3913.3185-.1533.0748-.3219.1135-.4927.113z" fill="#3b99fc"/><path d="m134.485 73.6113h-71.3112c-.6668.001-1.3059.265-1.7774.7341-.4715.4692-.7368 1.1052-.7377 1.7687v27.3829c.0009.664.2662 1.3.7377 1.769s1.1106.733 1.7774.734h71.3112c.667-.001 1.306-.265 1.777-.734.472-.469.737-1.105.738-1.769v-27.3829c-.001-.6635-.266-1.2995-.738-1.7687-.471-.4691-1.11-.7331-1.777-.7341zm2.219 29.8857c-.001.586-.235 1.147-.651 1.561s-.98.647-1.568.648h-71.3112c-.5883-.001-1.1524-.234-1.5684-.648-.4161-.414-.6501-.975-.6508-1.561v-27.3829c.0007-.5855.2347-1.1467.6508-1.5607.416-.414.9801-.6469 1.5684-.6476h71.3112c.588.0007 1.152.2336 1.568.6476s.65.9752.651 1.5607z" fill="#3f3d56"/><path d="m76.1213 98.3449c-1.6972 0-3.3562-.5008-4.7674-1.4391-1.4111-.9383-2.5109-2.2719-3.1604-3.8321-.6495-1.5603-.8194-3.2772-.4883-4.9336s1.1483-3.1778 2.3484-4.372 2.7291-2.0075 4.3936-2.3369c1.6646-.3295 3.3899-.1604 4.9579.4859s2.9081 1.7407 3.851 3.1449 1.4462 3.0551 1.4462 4.744c-.0026 2.2638-.9075 4.4343-2.5162 6.035-1.6087 1.6008-3.7898 2.5013-6.0648 2.5039zm0-16.7834c-1.6387 0-3.2405.4836-4.603 1.3895-1.3624.9059-2.4244 2.1935-3.0514 3.7-.6271 1.5064-.7912 3.1641-.4715 4.7634.3197 1.5992 1.1087 3.0683 2.2674 4.2213s2.635 1.9382 4.2421 2.2563c1.6072.3181 3.273.1548 4.7869-.4692 1.514-.624 2.8079-1.6807 3.7183-3.0365s1.3963-2.9497 1.3963-4.5803c-.0025-2.1858-.8762-4.2814-2.4294-5.827s-3.6591-2.415-5.8557-2.4175z" fill="#3f3d56"/><path d="m128.121 84.3584h-34.1761c-.4777.0003-.9367.1845-1.2809.5141-.3442.3297-.5469.779-.5655 1.254-.0024.024-.0034.0481-.0029.0722.0007.4878.1957.9555.5424 1.3005s.8167.5391 1.3069.5398h34.1761c.49 0 .961-.1939 1.308-.539.346-.3452.541-.8132.541-1.3013s-.195-.9562-.541-1.3013c-.347-.3451-.818-.539-1.308-.539z" fill="#3b99fc"/><path d="m128.121 91.5723h-34.1761c-.4777.0002-.9367.1845-1.2809.5141s-.5469.779-.5655 1.254c-.0024.024-.0034.0481-.0029.0721.0007.4879.1957.9556.5424 1.3006.3467.3449.8167.539 1.3069.5397h34.1761c.49 0 .961-.1939 1.308-.539.346-.3451.541-.8132.541-1.3013 0-.488-.195-.9561-.541-1.3012-.347-.3451-.818-.539-1.308-.539z" fill="#3b99fc"/><path d="m75.164 93.5362c-.2395.0005-.4726-.0766-.6641-.2195l-.0119-.0088-2.5009-1.9054c-.1158-.0883-.213-.1985-.2861-.3242-.073-.1257-.1205-.2644-.1396-.4084-.0192-.1439-.0097-.2902.028-.4305s.1027-.2718.1915-.387c.0887-.1153.1994-.212.3257-.2847s.2658-.1199.4105-.139c.1446-.019.2916-.0095.4326.0279.1409.0375.2731.1023.3889.1906l1.6199 1.236 3.8281-4.9679c.0888-.1152.1995-.2119.3259-.2846.1263-.0726.2658-.1198.4104-.1388.1447-.019.2917-.0094.4326.0281.141.0375.2731.1023.3889.1907l-.0238.0321.0244-.0317c.2336.1787.3864.4422.425.7328.0385.2906-.0403.5846-.2193.8174l-4.5028 5.8435c-.1041.1346-.238.2436-.3913.3184s-.3219.1135-.4926.113z" fill="#3b99fc"/></g></svg>