<svg fill="none" height="93" viewBox="0 0 149 93" width="149" xmlns="http://www.w3.org/2000/svg"><path d="m28.8631 41.6631c-.4111 0-.8054.1616-1.0961.4493s-.454.6779-.454 1.0847c0 .4069.1633.797.454 1.0847s.685.4493 1.0961.4493h19.4843v-.6692c-.0001-.4756.1192-.9437.3471-1.3624.228-.4187.5574-.7748.9588-1.0364z" fill="#e6e6e6"/><path d="m46.5928 38.2116h-6.5878c-.4111 0-.8053-.1616-1.096-.4493s-.454-.6779-.454-1.0847c0-.4069.1633-.7971.454-1.0847.2907-.2877.6849-.4493 1.096-.4493h6.5878c.4111 0 .8054.1616 1.096.4493.2907.2876.4541.6778.4541 1.0847 0 .4068-.1634.797-.4541 1.0847-.2906.2877-.6849.4493-1.096.4493z" fill="#e6e6e6"/><path d="m31.8178 27.2814h-25.57608c-.4111 0-.80537-.1616-1.09606-.4493-.2907-.2877-.45401-.6778-.45401-1.0847 0-.4068.16331-.797.45401-1.0847.29069-.2877.68496-.4493 1.09606-.4493h25.57608c.4111 0 .8054.1616 1.0961.4493.2906.2877.454.6779.454 1.0847 0 .4069-.1634.797-.454 1.0847-.2907.2877-.685.4493-1.0961.4493z" fill="#e6e6e6"/><path d="m20.6766 20.7624h-3.2939c-.4111 0-.8054-.1616-1.0961-.4493-.2906-.2877-.454-.6779-.454-1.0847 0-.4069.1634-.7971.454-1.0848.2907-.2876.685-.4493 1.0961-.4493h3.2939c.4111 0 .8054.1617 1.0961.4493.2907.2877.454.6779.454 1.0848 0 .4068-.1633.797-.454 1.0847s-.685.4493-1.0961.4493z" fill="#e6e6e6"/><path d="m48.1528 72.5151h-24.1109c-.8733-.001-1.7105-.3447-2.328-.9558-.6175-.6112-.9649-1.4397-.9659-2.304v-37.7445c.001-.8643.3484-1.6929.9659-2.304s1.4547-.9549 2.328-.9558h38.5141c.8732.0009 1.7105.3447 2.328.9558s.9649 1.4397.9658 2.304v9.3551h-.3875v-9.3551c-.0008-.7626-.3073-1.4937-.8522-2.0329s-1.2836-.8426-2.0541-.8434h-38.5141c-.7705.0008-1.5093.3042-2.0541.8434-.5449.5392-.8514 1.2703-.8522 2.0329v37.7445c.0008.7626.3073 1.4937.8522 2.0329.5448.5392 1.2836.8425 2.0541.8434h24.1109z" fill="#3f3d56"/><path d="m20.9418 49.9197h-17.57565c-.87329-.0009-1.71053-.3447-2.32804-.9558-.617509-.6111-.9648613-1.4397-.9658444-2.304v-30.6916c.0009831-.8643.3483354-1.6928.9658444-2.304.61751-.6111 1.45475-.9548 2.32804-.9558h31.32705c.8733.001 1.7106.3447 2.3281.9558.6175.6112.9648 1.4397.9658 2.304v12.4744h-.3875v-12.4744c-.0009-.7626-.3073-1.4937-.8522-2.0329s-1.2836-.8425-2.0542-.8434h-31.32705c-.77055.0009-1.50929.3042-2.05415.8434-.544859.5392-.851346 1.2703-.852218 2.0329v30.6916c.000872.7626.307359 1.4937.852218 2.0329.54486.5393 1.2836.8426 2.05415.8434h17.57565z" fill="#3f3d56"/><path d="m99.391 41.6631c.4013.2616.731.6177.959 1.0364s.347.8868.347 1.3624v.6692h19.484c.411 0 .806-.1616 1.096-.4493.291-.2877.454-.6778.454-1.0847 0-.4068-.163-.797-.454-1.0847-.29-.2877-.685-.4493-1.096-.4493z" fill="#e6e6e6"/><path d="m100.901 36.6776c.001-.4067.164-.7966.455-1.0842.29-.2876.684-.4494 1.095-.4498h6.588c.411 0 .806.1616 1.096.4493.291.2876.454.6778.454 1.0847 0 .4068-.163.797-.454 1.0847-.29.2877-.685.4493-1.096.4493h-6.588c-.411-.0005-.805-.1622-1.095-.4498-.291-.2876-.454-.6775-.455-1.0842z" fill="#e6e6e6"/><path d="m115.676 25.7474c.001-.4067.164-.7966.455-1.0842s.684-.4494 1.095-.4498h25.577c.411 0 .805.1616 1.096.4493.29.2877.454.6779.454 1.0847 0 .4069-.164.797-.454 1.0847-.291.2877-.685.4493-1.096.4493h-25.577c-.411-.0004-.804-.1622-1.095-.4498s-.454-.6775-.455-1.0842z" fill="#e6e6e6"/><path d="m126.818 19.2284c0-.4067.163-.7967.454-1.0842.291-.2876.685-.4494 1.096-.4499h3.293c.412 0 .806.1617 1.097.4493.29.2877.454.6779.454 1.0848 0 .4068-.164.797-.454 1.0847-.291.2877-.685.4493-1.097.4493h-3.293c-.411-.0005-.805-.1623-1.096-.4498-.291-.2876-.454-.6775-.454-1.0842z" fill="#e6e6e6"/><path d="m100.891 72.5151h24.111c.874-.001 1.711-.3447 2.328-.9558.618-.6112.965-1.4397.966-2.304v-37.7445c-.001-.8643-.348-1.6929-.966-2.304-.617-.6111-1.454-.9549-2.328-.9558h-38.5138c-.8733.0009-1.7105.3447-2.328.9558s-.9649 1.4397-.9659 2.304v9.3551h.3876v-9.3551c.0008-.7626.3073-1.4937.8522-2.0329.5448-.5392 1.2836-.8426 2.0541-.8434h38.5138c.771.0008 1.51.3042 2.054.8434.545.5392.852 1.2703.853 2.0329v37.7445c-.001.7626-.308 1.4937-.853 2.0329-.544.5392-1.283.8425-2.054.8434h-24.111z" fill="#3f3d56"/><path d="m128.102 49.9197h17.576c.873-.0009 1.711-.3447 2.328-.9558.618-.6111.965-1.4397.966-2.304v-30.6916c-.001-.8643-.348-1.6928-.966-2.304-.617-.6111-1.455-.9548-2.328-.9558h-31.327c-.873.001-1.711.3447-2.328.9558-.618.6112-.965 1.4397-.966 2.304v12.4744h.388v-12.4744c.001-.7626.307-1.4937.852-2.0329s1.283-.8425 2.054-.8434h31.327c.771.0009 1.509.3042 2.054.8434s.852 1.2703.852 2.0329v30.6916c0 .7626-.307 1.4937-.852 2.0329-.545.5393-1.283.8426-2.054.8434h-17.576z" fill="#3f3d56"/><path d="m97.7091 40.8022h-46.4554c-.873.0018-1.7098.3458-2.3272.9567-.6173.611-.9649 1.4391-.9667 2.3031v45.5393c.001.8643.3483 1.6929.9658 2.3041.6175.6111 1.4548.9548 2.3281.9557h46.4554c.8734-.0009 1.7106-.3446 2.3279-.9557.618-.6112.965-1.4398.966-2.3041v-45.5393c-.001-.8642-.348-1.6928-.966-2.304-.6173-.6111-1.4545-.9548-2.3279-.9558zm2.9069 48.7991c-.001.7626-.308 1.4937-.8528 2.0329s-1.2835.8425-2.0541.8434h-46.4554c-.7705-.0009-1.5092-.3042-2.0541-.8434-.5448-.5392-.8513-1.2703-.8522-2.0329v-45.5393c.0011-.7624.3077-1.4934.8525-2.0325.5448-.5392 1.2834-.8426 2.0538-.8437h46.4554c.7706.0009 1.5093.3042 2.0541.8434s.8518 1.2703.8528 2.0328z" fill="#3f3d56"/><g fill="#3b99fc"><path d="m94.0509 58.5373h-39.1391c-.4111 0-.8054-.1616-1.0961-.4493s-.454-.6779-.454-1.0847c0-.4069.1633-.7971.454-1.0848.2907-.2876.685-.4493 1.0961-.4493h39.1391c.4111 0 .8054.1617 1.0961.4493.2907.2877.454.6779.454 1.0848 0 .4068-.1633.797-.454 1.0847s-.685.4493-1.0961.4493z"/><path d="m82.9097 52.0177h-16.8569c-.4112 0-.8054-.1616-1.0961-.4493-.2907-.2876-.454-.6778-.454-1.0847 0-.4068.1633-.797.454-1.0847s.6849-.4493 1.0961-.4493h16.8569c.4111 0 .8054.1616 1.0961.4493s.454.6779.454 1.0847c0 .4069-.1633.7971-.454 1.0847-.2907.2877-.685.4493-1.0961.4493z"/><path d="m71.6718 67.7414h-16.857c-.4111 0-.8053-.1616-1.096-.4493s-.454-.6779-.454-1.0847c0-.4069.1633-.7971.454-1.0848.2907-.2876.6849-.4493 1.096-.4493h16.857c.4111 0 .8054.1617 1.0961.4493.2906.2877.454.6779.454 1.0848 0 .4068-.1634.797-.454 1.0847-.2907.2877-.685.4493-1.0961.4493z"/><path d="m71.6718 74.4528h-16.857c-.4111 0-.8053-.1616-1.096-.4493s-.454-.6779-.454-1.0847c0-.4069.1633-.797.454-1.0847s.6849-.4493 1.096-.4493h16.857c.4111 0 .8054.1616 1.0961.4493.2906.2877.454.6778.454 1.0847 0 .4068-.1634.797-.454 1.0847-.2907.2877-.685.4493-1.0961.4493z"/><path d="m71.6718 81.1642h-16.857c-.4111 0-.8053-.1616-1.096-.4493s-.454-.6778-.454-1.0847c0-.4068.1633-.797.454-1.0847s.6849-.4493 1.096-.4493h16.857c.4111 0 .8054.1616 1.0961.4493.2906.2877.454.6779.454 1.0847 0 .4069-.1634.797-.454 1.0847-.2907.2877-.685.4493-1.0961.4493z"/><path d="m92.6957 69.0564c1.5976 0 2.8927-1.2816 2.8927-2.8626 0-1.5811-1.2951-2.8627-2.8927-2.8627-1.5975 0-2.8926 1.2816-2.8926 2.8627 0 1.581 1.2951 2.8626 2.8926 2.8626z"/></g><path d="m92.4091 67.2861c-.0651.0001-.1285-.0207-.1805-.0594l-.0032-.0024-.6799-.5146c-.0635-.0482-.1052-.1195-.1157-.1981-.0104-.0786.011-.1581.0598-.2211.0487-.0629.1208-.1041.2002-.1145s.1598.0109.2233.0592l.4404.3341 1.0405-1.3434c.0241-.0311.0542-.0573.0886-.0769.0343-.0196.0722-.0324.1115-.0375.0393-.0052.0793-.0026.1176.0075.0383.0102.0742.0277.1057.0516h.0001l-.0065.0089.0066-.0089c.0635.0483.1051.1196.1155.1981.0105.0786-.0109.1581-.0596.221l-1.2239 1.5795c-.0283.0364-.0647.0658-.1064.086-.0416.0202-.0875.0307-.1339.0305z" fill="#fff"/><path d="m19.0296 8.89908c-.8892 0-1.7585-.26097-2.4979-.74989-.7393-.48893-1.3156-1.18385-1.6559-1.9969s-.4293-1.7077-.2558-2.57082c.1734-.86313.6017-1.65596 1.2305-2.27824.6287-.622273 1.4299-1.046048 2.302-1.2177327.8722-.1716846 1.7762-.08356883 2.5977.2532067.8216.336776 1.5238.907086 2.0178 1.638806s.7577 1.592.7577 2.47203c-.0013 1.17969-.4755 2.31067-1.3183 3.14483-.8429.83416-1.9857 1.30338-3.1778 1.30471zm0-8.515573c-.8126.000005-1.6069.238478-2.2826.685263-.6756.44678-1.2022 1.08181-1.5132 1.82478-.3109.74297-.3923 1.56052-.2338 2.34925.1586.78873.5499 1.51323 1.1245 2.08187s1.3066.95589 2.1036 1.11278 1.6231.07636 2.3738-.23138c.7508-.30775 1.3924-.82891 1.8439-1.49756.4515-.66866.6924-1.45478.6924-2.25897-.0012-1.07801-.4345-2.11151-1.2047-2.87378-.7703-.762266-1.8146-1.191039-2.9039-1.192253z" fill="#3f3d56"/><path d="m47.5501 24.4313c-.8892 0-1.7585-.261-2.4979-.7499-.7393-.4889-1.3156-1.1838-1.6559-1.9969-.3403-.813-.4293-1.7077-.2558-2.5708s.6017-1.656 1.2305-2.2782c.6288-.6223 1.4299-1.0461 2.302-1.2178.8722-.1717 1.7762-.0835 2.5977.2532.8216.3368 1.5238.9071 2.0178 1.6388.494.7318.7577 1.592.7577 2.4721-.0013 1.1797-.4754 2.3106-1.3183 3.1448s-1.9858 1.3034-3.1778 1.3047zm0-8.5156c-.8126 0-1.6069.2385-2.2826.6853-.6756.4468-1.2022 1.0818-1.5132 1.8248-.3109.743-.3923 1.5605-.2338 2.3492.1586.7888.5499 1.5133 1.1245 2.0819s1.3066.9559 2.1036 1.1128 1.6231.0763 2.3738-.2314c.7508-.3078 1.3925-.8289 1.8439-1.4976.4515-.6686.6924-1.4547.6924-2.2589-.0012-1.078-.4345-2.1116-1.2047-2.8738-.7703-.7623-1.8146-1.1911-2.9039-1.1923z" fill="#3f3d56"/><path d="m92.6957 75.7679c1.5976 0 2.8927-1.2817 2.8927-2.8627s-1.2951-2.8627-2.8927-2.8627c-1.5975 0-2.8926 1.2817-2.8926 2.8627s1.2951 2.8627 2.8926 2.8627z" fill="#3b99fc"/><path d="m92.4091 73.9975c-.0651.0001-.1285-.0207-.1805-.0593l-.0032-.0024-.6799-.5147c-.0314-.0239-.0579-.0536-.0777-.0876-.0199-.034-.0328-.0716-.038-.1105-.0051-.0389-.0026-.0785.0077-.1164s.028-.0735.0521-.1046c.0241-.0312.0542-.0574.0886-.077.0343-.0196.0723-.0324.1116-.0375.0393-.0052.0793-.0026.1176.0075.0383.0102.0743.0277.1057.0516l.4404.3342 1.0405-1.3435c.0241-.0311.0542-.0572.0885-.0769.0344-.0196.0723-.0324.1116-.0375.0393-.0052.0793-.0026.1176.0076.0383.0101.0742.0276.1057.0515l.0001.0001-.0065.0088.0066-.0088c.0635.0482.1051.1195.1155.1981.0105.0785-.0109.158-.0596.2209l-1.2239 1.5795c-.0283.0364-.0647.0658-.1064.086-.0416.0203-.0875.0307-.1339.0306z" fill="#fff"/><path d="m92.6957 82.493c1.5976 0 2.8927-1.2817 2.8927-2.8627s-1.2951-2.8627-2.8927-2.8627c-1.5975 0-2.8926 1.2817-2.8926 2.8627s1.2951 2.8627 2.8926 2.8627z" fill="#3b99fc"/><path d="m92.4091 80.7221c-.0651.0001-.1285-.0207-.1805-.0593l-.0033-.0024-.6798-.5147c-.0635-.0482-.105-.1195-.1154-.1981-.0105-.0785.011-.158.0597-.2208.0488-.0629.1207-.1041.2001-.1145.0793-.0104.1596.0107.2232.0589l.4404.3342 1.0405-1.3435c.0241-.0311.0542-.0572.0885-.0769.0344-.0196.0723-.0324.1116-.0375s.0793-.0026.1176.0076c.0383.0101.0742.0276.1057.0515l.0001.0001-.0065.0088.0066-.0088c.0635.0483.1051.1195.1155.1981.0105.0785-.0109.158-.0596.2209l-1.2239 1.5795c-.0283.0364-.0647.0658-.1064.086-.0416.0203-.0875.0307-.1339.0306z" fill="#fff"/><path d="m74.4856 36.8952c-3.0515-.0515-4.4383-2.3428-4.4381-4.4499.0002-2.1072 1.387-4.3982 4.4317-4.4492h.0066c3.0451.0514 4.4319 2.3427 4.4317 4.4498-.0001 2.1071-1.3871 4.3983-4.4319 4.4493zm-.0031-8.5156c-2.7808.0481-4.0474 2.1409-4.0475 4.0657-.0001 1.9255 1.2674 4.0194 4.0507 4.0664 2.7765-.0467 4.0442-2.1403 4.0443-4.0658.0001-1.9247-1.2666-4.0175-4.0475-4.0663z" fill="#3f3d56"/><path d="m101.802 24.4313c-.889 0-1.758-.261-2.4976-.7499-.7393-.4889-1.3156-1.1838-1.6559-1.9969-.3403-.813-.4293-1.7077-.2558-2.5708s.6017-1.656 1.2305-2.2782c.6288-.6223 1.4298-1.0461 2.3018-1.2178s1.776-.0835 2.598.2532c.821.3368 1.524.9071 2.018 1.6388.494.7318.757 1.592.757 2.4721-.001 1.1797-.475 2.3106-1.318 3.1448s-1.986 1.3034-3.178 1.3047zm0-8.5156c-.812 0-1.607.2385-2.2823.6853-.6756.4468-1.2022 1.0818-1.5132 1.8248-.3109.743-.3923 1.5605-.2338 2.3492.1586.7888.5499 1.5133 1.1245 2.0819s1.3068.9559 2.1038 1.1128 1.623.0763 2.374-.2314c.75-.3078 1.392-.8289 1.843-1.4976.452-.6686.693-1.4547.693-2.2589-.001-1.078-.435-2.1116-1.205-2.8738-.77-.7623-1.814-1.1911-2.904-1.1923z" fill="#3f3d56"/><path d="m130.015 8.89908c-.89-.00001-1.759-.26098-2.498-.7499-.74-.48893-1.316-1.18386-1.656-1.99691-.341-.81304-.43-1.7077-.256-2.57082.173-.86312.602-1.65595 1.23-2.27822.629-.622279 1.43-1.046052 2.303-1.2177349.872-.1716826 1.776-.08356377 2.597.2532129.822.336776 1.524.907082 2.018 1.638812.494.73172.758 1.59199.758 2.47202-.002 1.17969-.476 2.31067-1.319 3.14483s-1.985 1.30338-3.177 1.30471zm0-8.515572c-.813.000009-1.607.238486-2.283.685272-.676.44679-1.202 1.08182-1.513 1.82479s-.393 1.56052-.234 2.34925.55 1.51322 1.124 2.08186c.575.56864 1.307.95589 2.104 1.11277.797.15689 1.623.07636 2.374-.23139s1.392-.8289 1.844-1.49756c.451-.66865.692-1.45477.692-2.25896-.001-1.07801-.434-2.11152-1.205-2.87379-.77-.762264-1.814-1.191034-2.903-1.192242z" fill="#3f3d56"/></svg>