<svg fill="none" height="96" viewBox="0 0 137 96" width="137" xmlns="http://www.w3.org/2000/svg" xmlns:xlink="http://www.w3.org/1999/xlink"><radialGradient id="a" cx="0" cy="0" gradientTransform="matrix(27.6053 0 0 27.7219 52.6024 58.2369)" gradientUnits="userSpaceOnUse" r="1"><stop offset="0" stop-color="#5d9df6"/><stop offset="1" stop-color="#006fff"/></radialGradient><clipPath id="b"><path d="m52.6024 44.376h27.6053v27.7219h-27.6053z"/></clipPath><g fill="#afcaef"><path d="m19.7321 32.5942h-2v22.1187h2z"/><path d="m55.2914 58.2368h-36.2611v2h36.2611z"/><path d="m58.9247 88.0122h-43.6043v2h43.6043z"/><path d="m68.2866 15.2446h-2v31.7158h2z"/></g><path d="m19.739 33.134c-1.5732 0-3.111-.4684-4.4191-1.3461-1.308-.8777-2.3275-2.1252-2.9295-3.5848-.602-1.4595-.7596-3.0656-.4527-4.6151.307-1.5494 1.0645-2.9727 2.1769-4.0898s2.5297-1.8778 4.0726-2.186 3.1423-.15 4.5957.4545c1.4534.6046 2.6956 1.6284 3.5696 2.942.874 1.3135 1.3405 2.8579 1.3405 4.4377-.0023 2.1177-.8411 4.148-2.3322 5.6455-1.4912 1.4975-3.513 2.3398-5.6218 2.3421zm0-15.0356c-1.3881 0-2.745.4134-3.8992 1.1878-1.1541.7745-2.0537 1.8752-2.5849 3.163-.5312 1.2879-.6702 2.705-.3994 4.0722.2708 1.3671.9393 2.623 1.9208 3.6086.9815.9857 2.2321 1.6569 3.5935 1.9289 1.3614.2719 2.7725.1324 4.055-.4011 1.2824-.5334 2.3785-1.4368 3.1497-2.5958s1.1828-2.5217 1.1828-3.9156c-.0021-1.8686-.7422-3.6601-2.0579-4.9814-1.3158-1.3213-3.0997-2.0645-4.9604-2.0666z" fill="#3f3d56"/><path d="m7.95408 95.9997c-1.57317 0-3.11101-.4684-4.41905-1.3461s-2.32753-2.1252-2.929556-3.5848c-.60202434-1.4595-.759546-3.0656-.452636-4.615.306909-1.5495 1.064472-2.9728 2.176862-4.0899 1.1124-1.117 2.52967-1.8778 4.07261-2.186 1.54293-.3082 3.14224-.15 4.59569.4545 1.4534.6046 2.6956 1.6284 3.5696 2.942.874 1.3135 1.3405 2.8579 1.3405 4.4377-.0023 2.1177-.8411 4.148-2.3322 5.6455-1.4912 1.4975-3.513 2.3398-5.62182 2.3421zm0-15.0356c-1.38809 0-2.74501.4134-3.89916 1.1878-1.15415.7745-2.05371 1.8752-2.58491 3.1631-.531198 1.2878-.670179 2.7049-.39938 4.0721.27081 1.3671.93923 2.623 1.92075 3.6086.98153.9857 2.23208 1.6569 3.59349 1.9289 1.36142.2719 2.77256.1324 4.05503-.4011 1.2824-.5334 2.3785-1.4368 3.1497-2.5958s1.1828-2.5217 1.1828-3.9156c-.0021-1.8686-.7422-3.6601-2.0579-4.9814-1.3158-1.3213-3.09969-2.0645-4.96042-2.0666z" fill="#3f3d56"/><path d="m20.0071 65.7709c4.1343 0 7.4857-3.3656 7.4857-7.5173s-3.3514-7.5173-7.4857-7.5173c-4.1342 0-7.4856 3.3656-7.4856 7.5173s3.3514 7.5173 7.4856 7.5173z" fill="#6c63ff"/><path d="m113.841 32.5425h-2v17.6024h2z" fill="#afcaef"/><path d="m105.328 58.2803h-27.4v2h27.4z" fill="#afcaef"/><path d="m125.215 88.0122h-51.4118v2h51.4118z" fill="#5d9df6"/><path d="m68.2867 65.5459h-2v14.5658h2z" fill="#afcaef"/><path d="m112.814 36.4828c4.134 0 7.485-3.3656 7.485-7.5173s-3.351-7.5173-7.485-7.5173c-4.135 0-7.486 3.3656-7.486 7.5173s3.351 7.5173 7.486 7.5173z" fill="#6c63ff"/><path d="m66.8142 16.0696c-1.573 0-3.1107-.4684-4.4186-1.346-1.308-.8776-2.3274-2.125-2.9293-3.5844-.602-1.45947-.7595-3.06538-.4526-4.6147.3068-1.54932 1.0643-2.97246 2.1766-4.08946s2.5295-1.877688 4.0723-2.185867c1.5428-.3081791 3.142-.1500059 4.5952.454509 1.4533.604518 2.6955 1.628228 3.5694 2.941678s1.3404 2.85765 1.3404 4.43732c-.0024 2.11752-.8411 4.14772-2.3321 5.64502s-3.5126 2.3396-5.6213 2.3419zm0-15.03425c-1.388 0-2.7448.41332-3.8988 1.18769-1.1541.77437-2.0535 1.87501-2.5847 3.16275-.5311 1.28773-.6701 2.70471-.3993 4.07176.2707 1.36705.9391 2.62275 1.9206 3.60835.9814.9856 2.2318 1.6568 3.5931 1.9287s2.7724.1324 4.0547-.401 2.3783-1.4367 3.1494-2.5956c.7711-1.159 1.1827-2.52149 1.1827-3.91532-.0021-1.86843-.7421-3.65974-2.0577-4.98092s-3.0994-2.06433-4.96-2.06641z" fill="#3f3d56"/><path d="m129.46 95.9467c4.134 0 7.486-3.3656 7.486-7.5173s-3.352-7.5173-7.486-7.5173-7.486 3.3656-7.486 7.5173 3.352 7.5173 7.486 7.5173z" fill="#6c63ff"/><path d="m66.4369 95.9997c-1.5732 0-3.1111-.4684-4.4191-1.3461s-2.3275-2.1252-2.9295-3.5848c-.6021-1.4595-.7596-3.0656-.4527-4.615.3069-1.5495 1.0645-2.9728 2.1769-4.0899 1.1124-1.117 2.5297-1.8778 4.0726-2.186s3.1422-.15 4.5956.4545c1.4535.6046 2.6957 1.6284 3.5697 2.942.874 1.3135 1.3405 2.8579 1.3405 4.4377-.0023 2.1177-.8411 4.148-2.3323 5.6455-1.4911 1.4975-3.5129 2.3398-5.6217 2.3421zm0-15.0356c-1.3881 0-2.745.4134-3.8992 1.1878-1.1542.7745-2.0537 1.8752-2.5849 3.1631-.5312 1.2878-.6702 2.7049-.3994 4.0721.2708 1.3671.9393 2.623 1.9208 3.6086.9815.9857 2.232 1.6569 3.5935 1.9289 1.3614.2719 2.7725.1324 4.055-.4011 1.2824-.5334 2.3785-1.4368 3.1497-2.5958.7711-1.159 1.1828-2.5217 1.1828-3.9156-.0021-1.8686-.7422-3.6601-2.0579-4.9814-1.3158-1.3213-3.0997-2.0645-4.9604-2.0666z" fill="#3f3d56"/><path d="m112.84 66.1199c-1.573 0-3.111-.4685-4.419-1.3462s-2.328-2.1252-2.93-3.5847c-.602-1.4596-.759-3.0657-.452-4.6151.307-1.5495 1.064-2.9727 2.177-4.0898 1.112-1.1171 2.529-1.8779 4.072-2.1861s3.143-.15 4.596.4546c1.453.6045 2.696 1.6283 3.57 2.9419s1.34 2.8579 1.34 4.4377c-.002 2.1177-.841 4.1481-2.332 5.6455-1.491 1.4975-3.513 2.3398-5.622 2.3422zm0-15.0356c-1.388 0-2.745.4133-3.899 1.1878-1.154.7744-2.054 1.8751-2.585 3.163-.531 1.2878-.67 2.7049-.399 4.0721.27 1.3672.939 2.623 1.92 3.6087.982.9856 2.232 1.6569 3.594 1.9288 1.361.272 2.772.1324 4.055-.401 1.282-.5335 2.378-1.4368 3.15-2.5959.771-1.159 1.182-2.5216 1.182-3.9156-.002-1.8686-.742-3.66-2.058-4.9813-1.315-1.3213-3.099-2.0646-4.96-2.0666z" fill="#3f3d56"/><g clip-path="url(#b)"><path d="m80.2077 58.2369c0-7.6552-6.1797-13.8609-13.8026-13.8609-7.623 0-13.8027 6.2057-13.8027 13.8609s6.1797 13.861 13.8027 13.861c7.6229 0 13.8026-6.2058 13.8026-13.861z" fill="url(#a)"/><path d="m61.7256 54.3672c2.5844-2.541 6.7745-2.541 9.3589 0l.311.3058c.1293.1271.1293.333 0 .4601l-1.0639 1.0461c-.0647.0636-.1694.0636-.234 0l-.428-.4208c-1.803-1.7727-4.7261-1.7727-6.529 0l-.4584.4507c-.0646.0635-.1694.0635-.234 0l-1.064-1.0462c-.1292-.127-.1292-.333 0-.4601zm11.5593 2.1635.947.9311c.1292.127.1292.333 0 .4601l-4.2699 4.1982c-.1292.1271-.3387.1271-.4679 0l-3.0305-2.9796c-.0323-.0318-.0847-.0318-.117 0l-3.0304 2.9796c-.1292.1271-.3388.1271-.468 0l-4.27-4.1983c-.1292-.127-.1292-.333 0-.4601l.947-.9311c.1292-.127.3387-.127.4679 0l3.0306 2.9797c.0323.0318.0846.0318.117 0l3.0303-2.9797c.1293-.127.3388-.127.468 0l3.0305 2.9797c.0323.0318.0847.0318.117 0l3.0305-2.9796c.1292-.127.3387-.127.4679 0z" fill="#fff"/></g></svg>