<svg fill="none" height="109" viewBox="0 0 154 109" width="154" xmlns="http://www.w3.org/2000/svg"><g fill="#e4e4e4"><path d="m65.4231 46.4794c-.2418-.1781-.4727-.3706-.6913-.5765l.2992-.3184c.2059.1938.4233.3751.6509.5428z"/><path d="m63.5305 44.4339c-.3349-.5394-.5987-1.12-.7849-1.7271l.4174-.1284c.1752.5711.4233 1.1172.7383 1.6247zm-1.1055-3.5968c-.0043-.1033-.0065-.2068-.0065-.3104 0-.5312.0573-1.0609.1707-1.5798l.4265.0937c-.1067.4881-.1605.9864-.1605 1.4861 0 .0975.002.1948.0061.292zm1.1945-3.4754-.3882-.2001c.1803-.3504.3881-.6859.6214-1.0034.1432-.1948.2978-.3808.4632-.557l.3181.2995c-.1533.1634-.2968.3359-.4295.5166-.2196.2988-.4152.6146-.5849.9444zm2.4157-2.5363-.2062-.3854c.5636-.3024 1.1723-.5116 1.8025-.6198l.074.431c-.584.1001-1.148.294-1.6703.5742zm5.116-.0478c-.5267-.2714-1.0939-.4552-1.6796-.5441l.0656-.4322c.6324.096 1.245.2944 1.8137.5875z"/><path d="m73.0546 36.5081c-.1431-.238-.3085-.4616-.4942-.668l.3244-.2927c.2044.2271.3865.4734.544.7354z"/><path d="m56.3143 31.8565-.3518-.259c.1747-.2378.3588-.473.5473-.6991l.3352.2803c-.1827.2192-.3613.4472-.5307.6778z"/><path d="m77.9494 31.3509c-.3355-.4662-.7072-.9053-1.1116-1.3131l.3098-.3081c.4206.4241.8072.8808 1.1562 1.3658zm-19.9161-1.428-.2975-.3201c.4354-.4055.8958-.7832 1.3787-1.1307l.2547.3551c-.4678.3367-.914.7027-1.3359 1.0957zm17.5009-1.0082c-.4645-.3414-.9497-.6536-1.4528-.9349l.2127-.3819c.5189.2902 1.0194.6123 1.4985.9644zm-14.7017-1.0055-.2079-.3844c.5228-.2834 1.0628-.5336 1.6169-.7493l.1582.4074c-.5371.2091-1.0605.4517-1.5672.7263zm11.6913-.6749c-.5344-.2152-1.0819-.3965-1.639-.5427l.1106-.423c.575.1509 1.1399.338 1.6914.5601zm-8.4784-.5755-.1061-.4241c.5766-.1444 1.1617-.2528 1.7517-.3245l.0525.4341c-.572.0695-1.1391.1745-1.6981.3145zm5.1449-.2989c-.5713-.0746-1.1467-.1133-1.7228-.116l.002-.4373c.5944.0029 1.188.0429 1.7774.1198z"/><path d="m79.1961 33.6058c-.1075-.2637-.2267-.5262-.3541-.78l.3902-.1964c.1325.2641.2564.537.3681.8112z"/><path d="m80.3928 59.2999-.15-.4106c.269-.0986.5402-.2041.8058-.3136l.1663.4043c-.271.1118-.5476.2194-.8221.3199z"/><path d="m73.5846 60.6354-.016-.437c.5666-.0207 1.1393-.0641 1.7021-.1292l.0501.4344c-.5742.0663-1.1583.1106-1.7362.1318zm-1.7413-.0051c-.5785-.0246-1.1624-.0725-1.7354-.1425l.0529-.434c.5616.0686 1.134.1155 1.701.1397zm5.1981-.3945-.084-.4291c.5561-.109 1.115-.2417 1.661-.3941l.1172.4211c-.5569.1555-1.1269.2908-1.6942.4021zm-8.6522-.0273c-.5668-.1154-1.1359-.2549-1.6914-.4149l.1207-.4202c.5444.1567 1.1021.2936 1.6576.4067zm-3.3445-.963c-.5411-.2037-1.0809-.4318-1.6043-.6781l.1857-.3956c.5129.2412 1.0419.4648 1.5723.6645zm-3.1496-1.4811c-.5008-.2859-.9978-.5962-1.4773-.9223l.2454-.3616c.47.3196.9573.6238 1.4481.904z"/><path d="m59.0132 55.7987c-.2278-.1863-.4535-.3803-.6708-.5766l.2925-.3246c.2121.1916.4322.3808.6545.5626z"/><path d="m46.9249 11.7139-.2243-.3751c.2508-.1503.5064-.2991.7598-.4423l.2146.3807c-.2501.1414-.5025.2883-.7501.4367z"/><path d="m88.9612 17.685c-.3741-.4364-.7679-.8669-1.1703-1.2793l.3124-.3055c.4089.4191.809.8565 1.1893 1.3zm-2.4203-2.4808c-.4267-.3846-.8721-.7613-1.324-1.1194l.271-.3429c.4591.3639.9117.7465 1.3452 1.1374zm-2.7158-2.1555c-.4723-.3321-.9583-.6558-1.4444-.9621l.2326-.3701c.4923.3102.9845.638 1.4628.9743zm-2.9354-1.8493c-.502-.2817-1.0182-.5542-1.5344-.8099l.1937-.39185c.5228.25895 1.0457.53505 1.5542.82035zm-31.6816-.7374-.1948-.3913c.5223-.26063 1.0583-.51113 1.5931-.74455l.1745.4008c-.528.23042-1.0572.47775-1.5728.73505zm28.5733-.80237c-.5286-.22887-1.0701-.44684-1.6095-.64788l.1524-.40976c.5464.20367 1.0949.42449 1.6303.65627zm-25.3921-.58604-.1538-.40919c.5454-.20545 1.1041-.3998 1.6607-.57756l.1327.41659c-.5495.17549-1.1012.36735-1.6396.57016zm22.1419-.62588c-.5489-.17293-1.11-.3339-1.6678-.47844l.1094-.42328c.565.14638 1.1334.30949 1.6894.4847zm-18.8358-.4299-.1113-.42286c.5635-.14866 1.139-.28501 1.7107-.40513l.0897.42783c-.5645.1187-1.1328.25334-1.6891.40015zm15.4777-.44044c-.5635-.1155-1.1382-.2179-1.7082-.30437l.0654-.43225c.5774.08753 1.1596.19129 1.7304.30821zm-12.0814-.27306-.0678-.43196c.5757-.09059 1.1621-.16766 1.7429-.229l.0458.43481c-.5734.06063-1.1524.1367-1.7209.22616zm8.6515-.24743c-.5725-.05707-1.1548-.09998-1.7306-.12767l.0209-.43666c.5832.02796 1.173.07145 1.7529.12923zm-5.2005-.11685-.0235-.43652c.583-.03167 1.1742-.04861 1.7571-.05039l.0013.43724c-.5755.00178-1.1592.0185-1.7349.04967z"/><path d="m90.5628 19.7473c-.1655-.236-.3367-.4719-.509-.7014l.3491-.2627c.1751.2332.3491.473.5173.7129z"/><path d="m70.6781 90.4535c-.2897-.0373-.5791-.0769-.8683-.119l.0626-.4326c.2869.0416.574.0809.8612.1179z"/><path d="m68.0425 90.0474c-.5844-.1051-1.1753-.2217-1.7563-.3464l.0917-.4276c.5761.1238 1.1622.2394 1.7418.3436zm-3.4999-.7516c-.5774-.1445-1.1591-.3005-1.729-.4639l.1202-.4203c.5651.1619 1.142.3167 1.7147.46zm-3.4413-.9857c-.5662-.183-1.1361-.378-1.6938-.5793l.1482-.4114c.553.1998 1.1182.3931 1.6798.5747zm-3.367-1.2153c-.5511-.2203-1.1066-.4531-1.6509-.6922l.1754-.4004c.5399.2371 1.0908.4681 1.6373.6865zm-3.2777-1.4396c-.5358-.2571-1.0743-.5268-1.6006-.8016l.2019-.3877c.522.2725 1.0561.54 1.5875.795zm-3.1735-1.6565c-.5154-.2913-1.0347-.5964-1.5435-.9068l.2272-.3734c.5047.3079 1.0198.6105 1.531.8995zm-3.0559-1.8646c-.4963-.326-.9943-.6649-1.4801-1.0074l.2514-.3575c.4819.3398.9759.6759 1.4682.9992zm-2.9269-2.0647c-.4748-.3609-.9474-.7357-1.4047-1.1141l.2782-.337c.4527.3745.9205.7456 1.3906 1.1028zm-2.7621-2.2852c-.4426-.3982-.8825-.8109-1.3077-1.2269l.3051-.3127c.4209.4116.8564.8203 1.2944 1.2144zm-2.5631-2.5075c-.4077-.4337-.8116-.8819-1.2005-1.3322l.3303-.286c.3849.4457.7847.8893 1.1882 1.3186zm-2.3441-2.7139c-.3699-.4667-.7348-.9474-1.0844-1.4287l.3532-.2571c.346.4763.7071.9521 1.0733 1.414z"/><path d="m35.518 69.6532c-.162-.2442-.3213-.4898-.478-.7367l.3686-.2344c.1551.2444.3128.4874.4731.7292z"/></g><path d="m49.669 12.6458-.3255.1004-2.7455-8.92869c-.4214-1.37055-1.3693-2.51735-2.6352-3.1881-1.2659-.6707547-2.746-.810526-4.1148-.388563h-.0001l-18.8924 5.824013c-.6778.20893-1.3078.54949-1.8541 1.00222-.5464.45273-.9983 1.00877-1.33 1.63637s-.5367 1.31445-.6033 2.02145c-.0665.7069.0066 1.42.2153 2.0986v.0001l15.0617 48.9834c.4214 1.3705 1.3693 2.5173 2.6352 3.1881 1.2659.6707 2.746.8105 4.1148.3885l18.8925-5.824c1.3688-.4219 2.5142-1.3711 3.1841-2.6386s.8095-2.7495.388-4.1201l-10.362-33.6991.3255-.1004z" fill="#3f3d56"/><path d="m40.4696 1.52105-2.466.76023c.199.24344.3351.53214.3965.84069.0613.30854.0459.62744-.0449.92862-.0907.30119-.2541.5754-.4756.79848s-.4945.38819-.7947.48078l-10.8233 3.33651c-.3003.09254-.6187.10973-.9272.05003-.3085-.05969-.5976-.19443-.8418-.39235-.2442-.19791-.4361-.45292-.5587-.74257s-.1722-.60505-.1444-.91841l-2.3033.71005c-1.0222.31512-1.8776 1.02392-2.3778 1.97047-.5003.94652-.6046 2.05332-.2898 3.07682l15.0396 48.9116c.3147 1.0235 1.0226 1.8799 1.9679 2.3808.9454.5009 2.0507.6053 3.0729.2902h.0001l18.9834-5.8521c1.0222-.3151 1.8776-1.0239 2.3778-1.9705.5003-.9465.6046-2.0533.2898-3.0768l-15.0396-48.91154c-.3147-1.02351-1.0226-1.87993-1.9679-2.38084-.9454-.50091-2.0507-.60528-3.073-.29017z" fill="#fff"/><path d="m116.903 108.308-44.3182-15.9509c-1.05-.3793-1.9069-1.1601-2.3827-2.1711-.4758-1.0111-.5316-2.1698-.1552-3.222l23.1034-64.354c.3788-1.0513 1.1586-1.9093 2.1683-2.3857 1.0098-.4763 2.1671-.5322 3.2179-.1553l44.3185 15.9512c1.05.3792 1.907 1.16 2.383 2.1711s.531 2.1698.155 3.222l-23.103 64.3537c-.379 1.052-1.159 1.91-2.169 2.386s-2.167.532-3.218.155z" fill="#3f3d56"/><path d="m117.89 105.806-44.4746-16.0078c-.3237-.1169-.5878-.3576-.7345-.6692-.1466-.3117-.1638-.6689-.0478-.9933l23.2564-64.7801c.1167-.3241.3571-.5886.6684-.7354.3113-.1469.668-.1641.9919-.0479l44.4742 16.0074c.324.1169.588.3576.735.6692.147.3117.164.6689.048.9932l-23.257 64.7799c-.116.324-.357.589-.668.736s-.668.164-.992.048z" fill="#fff"/><path d="m120.091 29.5576c.198 0 .358-.1606.358-.3586 0-.1981-.16-.3587-.358-.3587s-.358.1606-.358.3587c0 .198.16.3586.358.3586z" fill="#fff"/><path d="m46.4728 39.0023c3.7772-3.7821 3.7772-9.9139 0-13.696-3.7772-3.782-9.9013-3.782-13.6785 0-3.7772 3.7821-3.7772 9.9139 0 13.696 3.7772 3.782 9.9013 3.782 13.6785 0z" fill="#3b99fc"/><path d="m40.6463 36.7756-4.7874-3.2518.418-.6166 3.9634 2.6923 2.8646-8.9725.7086.2267z" fill="#fff"/><path d="m116.417 72.0167c4.784-4.7902 4.784-12.5567 0-17.3468-4.784-4.7902-12.541-4.7902-17.3248 0-4.7841 4.7901-4.7841 12.5566 0 17.3468 4.7838 4.7902 12.5408 4.7902 17.3248 0z" fill="#3b99fc"/><path d="m104.8 68.5549-1.759-7.1218.915-.2263 1.456 5.8962 10.286-6.0224.476.8142z" fill="#fff"/></svg>