<svg fill="none" height="105" viewBox="0 0 109 105" width="109" xmlns="http://www.w3.org/2000/svg"><path d="m14.9088 30.4524c8.2339 0 14.9088-6.6749 14.9088-14.9088 0-8.23393-6.6749-14.908834-14.9088-14.908834s-14.9088 6.674904-14.9088 14.908834c0 8.2339 6.6749 14.9088 14.9088 14.9088z" fill="#e4e4e4"/><path d="m14.9088 27.9677c6.8616 0 12.424-5.5625 12.424-12.4241 0-6.86155-5.5624-12.42397-12.424-12.42397-6.86158 0-12.424 5.56242-12.424 12.42397 0 6.8616 5.56242 12.4241 12.424 12.4241z" fill="#3b99fc"/><path d="m54.5 30.4524c8.2339 0 14.9088-6.6749 14.9088-14.9088 0-8.23393-6.6749-14.908834-14.9088-14.908834s-14.9088 6.674904-14.9088 14.908834c0 8.2339 6.6749 14.9088 14.9088 14.9088z" fill="#e4e4e4"/><path d="m54.5 27.9677c6.8616 0 12.424-5.5625 12.424-12.4241 0-6.86155-5.5624-12.42397-12.424-12.42397s-12.424 5.56242-12.424 12.42397c0 6.8616 5.5624 12.4241 12.424 12.4241z" fill="#fff"/><path d="m94.0912 30.4524c8.2338 0 14.9088-6.6749 14.9088-14.9088 0-8.23393-6.675-14.908834-14.9088-14.908834-8.2339 0-14.9088 6.674904-14.9088 14.908834 0 8.2339 6.6749 14.9088 14.9088 14.9088z" fill="#e4e4e4"/><path d="m94.0912 27.9677c6.8618 0 12.4238-5.5625 12.4238-12.4241 0-6.86155-5.562-12.42397-12.4238-12.42397-6.8615 0-12.424 5.56242-12.424 12.42397 0 6.8616 5.5625 12.4241 12.424 12.4241z" fill="#fff"/><path d="m13.8531 20.0365c-.0222 0-.0445-.0006-.0667-.0016-.1965-.0095-.3886-.0614-.5632-.1521s-.3274-.218-.4481-.3734l-1.9058-2.4503c-.2219-.286-.3214-.6483-.2765-1.0075.0449-.3591.2304-.6859.5159-.9084l.0686-.0534c.286-.2219.6483-.3213 1.0075-.2764s.6859.2304.9085.5158c.1074.1381.2434.2514.3987.3321.1552.0807.3261.1268.5008.1354.1748.0085.3493-.0209.5117-.0861.1623-.0651.3087-.1647.429-.2917l3.8697-4.0848c.1233-.1302.2711-.2348.4348-.3079.1638-.073.3403-.1131.5195-.118.1793-.0048.3577.0257.5252.0898.1674.0641.3206.1606.4508.284l.0631.0598c.2629.249.416.5923.4258.9543.0098.3619-.1246.7129-.3737.9758l-6.0047 6.3382c-.1275.1347-.2812.242-.4515.3153-.1704.0733-.3539.1111-.5394.1111z" fill="#fff"/><path d="m14.9088 67.4363c8.2339 0 14.9088-6.6749 14.9088-14.9088s-6.6749-14.9088-14.9088-14.9088-14.9088 6.6749-14.9088 14.9088 6.6749 14.9088 14.9088 14.9088z" fill="#e4e4e4"/><path d="m54.5 67.4363c8.2339 0 14.9088-6.6749 14.9088-14.9088s-6.6749-14.9088-14.9088-14.9088-14.9088 6.6749-14.9088 14.9088 6.6749 14.9088 14.9088 14.9088z" fill="#e4e4e4"/><path d="m15.2479 64.9515c6.8616 0 12.424-5.5624 12.424-12.424s-5.5624-12.424-12.424-12.424c-6.86157 0-12.42399 5.5624-12.42399 12.424s5.56242 12.424 12.42399 12.424z" fill="#fff"/><path d="m94.0912 67.4363c8.2338 0 14.9088-6.6749 14.9088-14.9088s-6.675-14.9088-14.9088-14.9088c-8.2339 0-14.9088 6.6749-14.9088 14.9088s6.6749 14.9088 14.9088 14.9088z" fill="#e4e4e4"/><path d="m94.0912 64.9515c6.8618 0 12.4238-5.5624 12.4238-12.424s-5.562-12.424-12.4238-12.424c-6.8615 0-12.424 5.5624-12.424 12.424s5.5625 12.424 12.424 12.424z" fill="#fff"/><path d="m54.6138 64.9515c6.8616 0 12.424-5.5624 12.424-12.424s-5.5624-12.424-12.424-12.424-12.424 5.5624-12.424 12.424 5.5624 12.424 12.424 12.424z" fill="#3b99fc"/><path d="m53.5581 57.0204c-.0222 0-.0444-.0006-.0667-.0016-.1965-.0095-.3886-.0614-.5632-.1521-.1745-.0907-.3274-.2181-.4481-.3734l-1.9058-2.4503c-.2219-.286-.3213-.6483-.2765-1.0075.0449-.3592.2305-.6859.5159-.9084l.0686-.0534c.286-.2219.6483-.3213 1.0075-.2764s.6859.2304.9085.5158c.1074.1381.2434.2514.3987.3321.1552.0807.3261.1268.5008.1354.1748.0085.3493-.0209.5117-.0861.1623-.0652.3087-.1647.429-.2917l3.8697-4.0848c.1234-.1302.2711-.2348.4348-.3079.1638-.0731.3403-.1132.5196-.118.1792-.0048.3576.0257.5251.0898.1674.0641.3206.1606.4508.2839l.0632.0599c.2628.249.416.5923.4257.9543.0098.3619-.1246.7129-.3736.9758l-6.0048 6.3382c-.1275.1347-.2811.242-.4515.3153s-.3539.1111-.5394.1111z" fill="#fff"/><path d="m14.9088 104.424c8.2339 0 14.9088-6.6753 14.9088-14.9092s-6.6749-14.9088-14.9088-14.9088-14.9088 6.6749-14.9088 14.9088 6.6749 14.9092 14.9088 14.9092z" fill="#e4e4e4"/><path d="m54.5 104.424c8.2339 0 14.9088-6.6753 14.9088-14.9092s-6.6749-14.9088-14.9088-14.9088-14.9088 6.6749-14.9088 14.9088 6.6749 14.9092 14.9088 14.9092z" fill="#e4e4e4"/><path d="m54.5 101.939c6.8616 0 12.424-5.5626 12.424-12.4242s-5.5624-12.424-12.424-12.424-12.424 5.5624-12.424 12.424 5.5624 12.4242 12.424 12.4242z" fill="#fff"/><path d="m94.0912 104.424c8.2338 0 14.9088-6.6753 14.9088-14.9092s-6.675-14.9088-14.9088-14.9088c-8.2339 0-14.9088 6.6749-14.9088 14.9088s6.6749 14.9092 14.9088 14.9092z" fill="#e4e4e4"/><path d="m94.0912 101.939c6.8618 0 12.4238-5.5626 12.4238-12.4242s-5.562-12.424-12.4238-12.424c-6.8615 0-12.424 5.5624-12.424 12.424s5.5625 12.4242 12.424 12.4242z" fill="#fff"/><path d="m14.9088 101.939c6.8616 0 12.424-5.5626 12.424-12.4242s-5.5624-12.424-12.424-12.424c-6.86158 0-12.424 5.5624-12.424 12.424s5.56242 12.4242 12.424 12.4242z" fill="#3b99fc"/><path d="m13.8531 94.0077c-.0222 0-.0445-.0006-.0667-.0016-.1965-.0095-.3886-.0614-.5632-.1521s-.3274-.2181-.4481-.3734l-1.9058-2.4503c-.2219-.286-.3214-.6483-.2765-1.0075s.2304-.6859.5159-.9084l.0686-.0534c.286-.2219.6483-.3213 1.0075-.2764s.6859.2304.9085.5158c.1074.1381.2434.2514.3987.3321.1552.0807.3261.1268.5008.1354.1748.0085.3493-.0209.5117-.0861.1623-.0652.3087-.1647.429-.2917l3.8697-4.0848c.1233-.1302.2711-.2348.4348-.3079.1638-.0731.3403-.1132.5195-.118.1793-.0048.3577.0257.5252.0898.1674.0641.3206.1606.4508.2839l.0631.0599c.2629.249.416.5923.4258.9543.0098.3619-.1246.7129-.3737.9758l-6.0047 6.3382c-.1275.1347-.2812.242-.4515.3153-.1704.0733-.3539.1111-.5394.1111z" fill="#fff"/><path d="m94.1678 101.939c6.8612 0 12.4242-5.5626 12.4242-12.4242s-5.563-12.424-12.4242-12.424c-6.8616 0-12.424 5.5624-12.424 12.424s5.5624 12.4242 12.424 12.4242z" fill="#3b99fc"/><path d="m93.1121 94.0077c-.0222 0-.0444-.0006-.0667-.0016-.1965-.0095-.3886-.0614-.5632-.1521-.1745-.0907-.3274-.2181-.4481-.3734l-1.9058-2.4503c-.2219-.286-.3213-.6483-.2764-1.0075.0448-.3592.2304-.6859.5158-.9084l.0686-.0534c.286-.2219.6483-.3213 1.0075-.2764s.6859.2304.9086.5158c.1074.1381.2433.2514.3986.3321.1552.0807.3261.1268.5008.1354.1748.0085.3493-.0209.5117-.0861.1623-.0652.3087-.1647.429-.2917l3.8698-4.0848c.1233-.1302.271-.2348.4348-.3079.1637-.0731.3402-.1132.5195-.118.1792-.0048.3577.0257.5251.0898.1675.0641.3206.1606.4508.2839l.0635.0599c.263.249.416.5923.425.9543.01.3619-.124.7129-.373.9758l-6.005 6.3382c-.1275.1347-.2811.242-.4515.3153s-.3539.1111-.5394.1111z" fill="#fff"/></svg>