<svg fill="none" height="97" viewBox="0 0 118 97" width="118" xmlns="http://www.w3.org/2000/svg" xmlns:xlink="http://www.w3.org/1999/xlink"><clipPath id="a"><path d="m0 0h118v97h-118z"/></clipPath><g clip-path="url(#a)"><path d="m75.9675 38.6255-8.948-24.8809.227-.0815-1.6457-4.57627-.2269.08161-2.7474-7.63918c-.1026-.28532-.2604-.547642-.4645-.771994-.204-.224352-.4503-.406338-.7247-.535569-.2744-.1292316-.5715-.2031774-.8745-.2176135s-.6059.0309196-.8913.1334765l-16.1761 5.81169c-.2855.10255-.5479.26029-.7724.46422s-.4065.45005-.5358.72432c-.1293.27426-.2033.5713-.2178.87414-.0144.30285.0309.60557.1335.89089l1.9156 5.32648-.3585.138 1.2228 3.1738.287-.1105.2539.706-.3054.1176 1.2228 3.1738.2339-.0901 8.869 24.6611c.1021.2857.2597.5484.4636.773.2039.2247.4503.4069.7248.5362.2746.1293.5719.2032.8751.2174.3032.0141.6062-.0317.8916-.1348l16.176-5.8117c.576-.2077 1.0462-.6353 1.3072-1.1891.2611-.5537.2917-1.1883.0852-1.7645z" fill="#3f3d56"/><path d="m57.5483 46.5707c-.2278-.0005-.4499-.0711-.6362-.2022-.1862-.1311-.3275-.3163-.4048-.5305l-13.4818-37.48774c-.0992-.27611-.0847-.58032.0404-.84572.1251-.26541.3506-.47027.6268-.56954l3.4418-1.23655-.0052.12036c-.0088.20893.0339.41683.1244.60537.0905.18855.226.35196.3946.47583.1685.12388.365.20442.572.23453s.4183.00886.6152-.06186l7.6383-2.74425c.1844-.08443.3463-.21106.4726-.36963.1263-.15858.2135-.34465.2546-.54317.0406-.1952.0344-.39723-.018-.58961-.0524-.19237-.1496-.36964-.2836-.51733l-.0806-.08959 3.5551-1.277351c.2763-.098837.5805-.084133.846.040893.2654.125028.4705.350168.5701.626048l12.8628 35.76641c.2625.7327.2235 1.5396-.1084 2.2436s-.9296 1.2477-1.6621 1.5117l-14.9589 5.3745c-.1203.0434-.2472.0657-.3751.0658z" fill="#fff"/><path d="m56.2304 19.9813c2.4162 0 4.3749-1.9578 4.3749-4.3728 0-2.4149-1.9587-4.3727-4.3749-4.3727-2.4161 0-4.3748 1.9578-4.3748 4.3727 0 2.415 1.9587 4.3728 4.3748 4.3728z" fill="#3b99fc"/><g fill="#e6e6e6"><path d="m67.0712 21.9672-15.1503 5.4432c-.0473.0171-.0976.0247-.1478.0224-.0503-.0023-.0996-.0145-.1452-.0359-.0455-.0213-.0864-.0515-.1203-.0887s-.0601-.0807-.0771-.1281c-.017-.0473-.0245-.0975-.0221-.1478.0024-.0502.0147-.0995.0362-.145.0216-.0455.0518-.0862.0891-.12s.0809-.0599.1283-.0768l15.1503-5.4432c.0955-.034.2005-.0288.2921.0145s.1623.1211.1966.2164.0293.2003-.0138.292c-.043.0916-.1207.1625-.216.197z"/><path d="m62.5722 25.4187-4.9834 1.7904c-.0473.0172-.0976.0248-.1478.0224-.0503-.0023-.0996-.0145-.1452-.0359-.0455-.0214-.0864-.0515-.1202-.0887-.0339-.0372-.0601-.0807-.0771-.1281-.017-.0473-.0245-.0975-.0221-.1477.0024-.0503.0147-.0996.0362-.145.0215-.0455.0517-.0863.089-.1201.0373-.0337.0809-.0598.1283-.0768l4.9834-1.7904c.0955-.0343.2007-.0293.2925.014.0919.0432.1627.1211.197.2166.0344.0955.0294.2006-.0139.2924s-.1212.1626-.2167.1969z"/><path d="m63.7575 28.7146-4.9834 1.7904c-.0473.017-.0975.0245-.1477.0222-.0502-.0024-.0994-.0147-.1449-.0361-.0454-.0214-.0862-.0516-.12-.0887-.0338-.0372-.06-.0807-.077-.1279-.017-.0473-.0245-.0974-.0221-.1476s.0146-.0994.0361-.1448c.0214-.0455.0515-.0863.0887-.1201.0372-.0337.0807-.0599.128-.0769l4.9834-1.7904c.0955-.0343.2007-.0293.2925.014.0919.0432.1627.1211.1971.2166.0343.0955.0293.2006-.014.2924-.0432.0918-.1212.1626-.2167.1969z"/><path d="m64.3646 30.4024-4.9834 1.7904c-.0473.0171-.0976.0248-.1478.0225-.0503-.0023-.0997-.0145-.1452-.0359-.0456-.0214-.0865-.0515-.1204-.0887-.0339-.0373-.06-.0808-.0771-.1281-.017-.0474-.0245-.0976-.0221-.1479.0024-.0502.0148-.0995.0363-.145s.0518-.0863.0891-.12c.0373-.0338.0809-.0599.1283-.0768l4.9834-1.7904c.0473-.0171.0975-.0247.1478-.0224s.0996.0145.1452.0359c.0455.0214.0864.0515.1203.0887s.06.0807.0771.1281c.017.0473.0245.0975.0221.1478-.0024.0502-.0148.0995-.0363.145s-.0517.0863-.089.12c-.0373.0338-.0809.0599-.1283.0768z"/><path d="m65.9513 26.0391-10.573 3.7987c-.0473.0171-.0976.0247-.1478.0224-.0503-.0023-.0996-.0145-.1452-.0359-.0455-.0214-.0864-.0515-.1203-.0887s-.0601-.0807-.0771-.1281c-.017-.0473-.0245-.0975-.0221-.1478.0024-.0502.0147-.0995.0362-.145s.0518-.0863.0891-.12c.0373-.0338.0809-.0599.1283-.0768l10.573-3.7987c.0474-.0171.0976-.0247.1479-.0224s.0996.0145.1451.0359c.0456.0214.0865.0515.1203.0887.0339.0372.0601.0808.0771.1281.0171.0473.0246.0976.0221.1478-.0024.0502-.0147.0995-.0362.145s-.0518.0863-.0891.12c-.0373.0338-.0809.0599-.1283.0768z"/></g><path d="m63.8216 34.5006-1.8095.6501c-.1623.0582-.3412.0496-.4972-.0239-.156-.0736-.2765-.2061-.3348-.3683-.0584-.1623-.0499-.341.0236-.497s.2059-.2765.3682-.3349l1.8095-.6501c.1623-.0582.3412-.0496.4972.0239.156.0736.2765.206.3348.3683.0584.1622.0499.341-.0236.497s-.2059.2765-.3682.3349z" fill="#3b99fc"/><path d="m49.5627 5.81943c.1389 0 .2516-.11261.2516-.25151 0-.13891-.1127-.25151-.2516-.25151-.139 0-.2517.1126-.2517.25151 0 .1389.1127.25151.2517.25151z" fill="#fff"/><path d="m117.586 53.9464-4.689 7.8871.178.0939-1.588 3.0091-.331-.1749-1.043 1.7539.259.149-1.701 2.9443-.295-.1701-15.3007 25.7375c-.4013.6735-1.0535 1.1604-1.8135 1.3538-.7601.1934-1.5659.0776-2.2405-.3222l-28.4447-16.8932c-.674-.401-1.1612-1.0529-1.3547-1.8126-.1935-.7598-.0775-1.5652.3225-2.2395l24.5106-41.2297c.4013-.6736 1.0535-1.1605 1.8135-1.3539.7601-.1934 1.5659-.0775 2.2405.3222l28.445 16.8933c.673.4012 1.16 1.0531 1.354 1.8127.193.7596.078 1.5649-.322 2.2393z" fill="#3f3d56"/><path d="m90.0351 94.6164-28.5449-16.9525c-.2077-.1237-.3578-.3247-.4174-.5588-.0597-.2342-.0239-.4824.0993-.6903l24.6732-41.504c.1238-.2076.3248-.3577.5591-.4173s.4826-.0239.6906.0993l28.545 16.9526c.208.1237.358.3246.417.5588.06.2341.024.4824-.099.6902l-24.6732 41.5041c-.1237.2076-.3248.3576-.5591.4172-.2342.0596-.4826.0239-.6906-.0993z" fill="#fff"/><path d="m101.761 42.4132c.139 0 .251-.1126.251-.2515s-.112-.2515-.251-.2515-.252.1126-.252.2515.113.2515.252.2515z" fill="#fff"/><path d="m100.203 72.1442-23.8276-14.1512c-.0747-.044-.1401-.1023-.1922-.1716s-.0901-.1482-.1116-.2321c-.0216-.084-.0263-.1714-.014-.2572s.0414-.1684.0858-.2429c.0443-.0745.1028-.1396.1724-.1914.0695-.0518.1485-.0895.2326-.1107s.1716-.0256.2574-.013c.0858.0127.1683.0421.2426.0867l23.8276 14.1512c.075.044.14.1023.192.1715.053.0693.091.1482.112.2322.022.084.026.1713.014.2572-.012.0858-.041.1683-.086.2428-.044.0746-.103.1396-.172.1914-.07.0519-.149.0895-.233.1107s-.171.0257-.257.013c-.086-.0126-.168-.0421-.243-.0866z" fill="#e6e6e6"/><path d="m90.6889 69.9512-7.8377-4.6547c-.0744-.0442-.1393-.1026-.1912-.1718-.0518-.0693-.0895-.1481-.1108-.2319-.0214-.0838-.026-.171-.0136-.2566.0123-.0856.0415-.1679.0857-.2423.0442-.0743.1026-.1393.1719-.191.0693-.0518.1481-.0895.232-.1108.0838-.0213.1711-.0259.2567-.0135.0857.0123.168.0414.2424.0856l7.8377 4.6547c.0743.0442.1393.1026.1911.1719.0518.0692.0894.148.1108.2318.0213.0838.0259.171.0136.2566-.0124.0856-.0415.1679-.0857.2422-.0442.0744-.1026.1393-.1719.1911s-.1481.0894-.232.1107c-.0838.0214-.171.026-.2567.0136-.0856-.0123-.168-.0414-.2423-.0856z" fill="#e6e6e6"/><path d="m87.6075 75.1351-7.8377-4.6547c-.1502-.0892-.2587-.2344-.3018-.4036-.0431-.1693-.0172-.3487.0721-.4988.0892-.1501.2345-.2587.4038-.3018s.3488-.0172.499.072l7.8377 4.6547c.0744.0442.1393.1026.1911.1718.0518.0693.0895.1481.1108.2319.0214.0838.026.171.0136.2565-.0123.0856-.0415.168-.0857.2423-.0441.0743-.1026.1393-.1719.191-.0693.0518-.1481.0895-.2319.1108-.0839.0213-.1711.0259-.2567.0136-.0857-.0124-.168-.0415-.2424-.0857z" fill="#e6e6e6"/><path d="m86.029 77.7898-7.8376-4.6547c-.0746-.0441-.1397-.1024-.1917-.1717s-.0899-.1481-.1113-.232c-.0215-.0839-.0262-.1712-.0139-.257.0123-.0857.0415-.1681.0857-.2426.0443-.0745.1028-.1395.1722-.1913.0695-.0518.1484-.0894.2324-.1107.084-.0212.1714-.0257.2572-.0132.0857.0125.1681.0418.2425.0863l7.8376 4.6547c.0747.044.1401.1023.1922.1716.0522.0692.0901.1481.1117.2321s.0263.1714.014.2572-.0415.1684-.0858.2429-.1029.1396-.1724.1914c-.0695.0519-.1486.0895-.2327.1107s-.1716.0256-.2574.013c-.0858-.0127-.1683-.0421-.2427-.0867z" fill="#e6e6e6"/><path d="m93.5654 75.117-16.6288-9.8757c-.1495-.0896-.2573-.2347-.3-.4036-.0426-.1689-.0166-.3478.0724-.4975s.2338-.2581.4026-.3015c.1688-.0433.3479-.018.4981.0704l16.6288 9.8757c.0747.044.1401.1023.1922.1716.0522.0693.0901.1482.1117.2322.0215.0839.0263.1713.014.2572-.0123.0858-.0415.1683-.0858.2429-.0443.0745-.1029.1396-.1724.1914s-.1486.0895-.2327.1107-.1716.0256-.2574.0129c-.0858-.0126-.1683-.0421-.2427-.0867z" fill="#e6e6e6"/><path d="m90.3959 87.7386-2.8458-1.6901c-.255-.1518-.4394-.3987-.5125-.6863-.073-.2877-.0289-.5925.1228-.8476.1516-.2552.3984-.4397.6861-.513.2877-.0734.5927-.0296.8482.1217l2.8458 1.6901c.2554.1517.4401.3986.5134.6864s.0292.5929-.1226.8482c-.1517.2553-.3988.4399-.6867.5131-.288.0733-.5932.0292-.8487-.1225z" fill="#3b99fc"/><path d="m95.7055 60.2973c3.2215 0 5.8335-2.6103 5.8335-5.8303s-2.612-5.8303-5.8335-5.8303c-3.2216 0-5.8332 2.6103-5.8332 5.8303s2.6116 5.8303 5.8332 5.8303z" fill="#3b99fc"/><path d="m.0687256 78.1591h78.9387744v-45.6783c-.0004-.3422-.1366-.6703-.3787-.9123-.2422-.242-.5705-.3782-.9129-.3786h-76.35562c-.34242.0004-.6707.1366-.912828.3786-.242129.242-.378331.5701-.3787264.9123z" fill="#cacaca"/><path d="m76.5685 32.9751h-74.06093v42.025h74.06093z" fill="#fff"/><path d="m0 76.9229v5.6367c-.00000255.2337.0460439.4651.13551.681.089467.2158.220601.412.385916.5772.165315.1653.361575.2964.577574.3858.21599.0894.44749.1354.68129.1354h29.13571v11.1243h-.3871c-.0303 0-.0604.006-.0885.0176-.028.0116-.0535.0286-.075.0501s-.0385.0469-.0501.075c-.0117.028-.0176.0581-.0176.0884v.7738c0 .0303.0059.0604.0176.0884.0116.0281.0286.0536.0501.075.0215.0215.047.0385.075.0501.0281.0117.0582.0176.0885.0176h18.0871c.0304 0 .0604-.0059.0885-.0176.0281-.0116.0536-.0286.075-.0501.0215-.0214.0385-.0469.0502-.075.0116-.028.0176-.0581.0176-.0884v-.7737c0-.0304-.006-.0605-.0176-.0885-.0117-.028-.0287-.0535-.0502-.075-.0214-.0215-.0469-.0385-.075-.0501s-.0581-.0176-.0885-.0176h-.3871v-11.1243h29.1357c.2338 0 .4653-.046.6813-.1354s.4123-.2205.5776-.3857c.1653-.1653.2965-.3614.3859-.5773.0895-.2159.1355-.4473.1355-.681v-5.6367z" fill="#3f3d56"/><path d="m65.8519 47.0298h-35.0724c-.2211 0-.4332-.0878-.5895-.2441-.1564-.1562-.2442-.3682-.2442-.5892s.0878-.4329.2442-.5892c.1563-.1562.3684-.244.5895-.244h35.0724c.2211 0 .4331.0878.5894.244.1564.1563.2442.3682.2442.5892s-.0878.433-.2442.5892c-.1563.1563-.3683.2441-.5894.2441z" fill="#e6e6e6"/><path d="m54.0837 50.7911h-11.5363c-.2211 0-.4331-.0878-.5895-.2441-.1563-.1563-.2442-.3682-.2442-.5892s.0879-.433.2442-.5892c.1564-.1563.3684-.2441.5895-.2441h11.5363c.2212 0 .4332.0878.5896.2441.1563.1562.2441.3682.2441.5892s-.0878.4329-.2441.5892c-.1564.1563-.3684.2441-.5896.2441z" fill="#e6e6e6"/><path d="m54.0837 58.4215h-11.5363c-.2211 0-.4331-.0878-.5895-.2441-.1563-.1563-.2442-.3682-.2442-.5892s.0879-.433.2442-.5893c.1564-.1562.3684-.244.5895-.244h11.5363c.2212 0 .4332.0878.5896.244.1563.1563.2441.3683.2441.5893s-.0878.4329-.2441.5892c-.1564.1563-.3684.2441-.5896.2441z" fill="#e6e6e6"/><path d="m54.0838 62.3291h-11.5363c-.1095 0-.2179-.0216-.319-.0634-.1011-.0419-.1931-.1033-.2705-.1807-.0774-.0773-.1388-.1692-.1807-.2703s-.0634-.2094-.0634-.3189c0-.1094.0215-.2177.0634-.3188s.1033-.193.1807-.2703c.0774-.0774.1694-.1388.2705-.1807.1011-.0418.2095-.0634.319-.0634h11.5363c.1095 0 .2179.0216.3191.0634.1011.0419.193.1033.2704.1807.0774.0773.1388.1692.1807.2703s.0635.2094.0635.3188c0 .1095-.0216.2178-.0635.3189s-.1033.193-.1807.2703c-.0774.0774-.1693.1388-.2704.1807-.1012.0418-.2096.0634-.3191.0634z" fill="#e6e6e6"/><path d="m60.5537 54.5527h-24.4762c-.221 0-.4331-.0878-.5894-.244-.1564-.1563-.2442-.3682-.2442-.5892s.0878-.433.2442-.5892c.1563-.1563.3684-.2441.5894-.2441h24.4762c.2211 0 .4332.0878.5895.2441.1563.1562.2442.3682.2442.5892s-.0879.4329-.2442.5892c-.1563.1562-.3684.244-.5895.244z" fill="#e6e6e6"/><path d="m65.2679 70.3304h-4.1888c-.376 0-.7365-.1493-1.0024-.415-.2658-.2657-.4152-.6261-.4152-1.0019s.1494-.7362.4152-1.0019c.2659-.2657.6264-.415 1.0024-.415h4.1888c.376 0 .7366.1493 1.0024.415.2659.2657.4153.6261.4153 1.0019s-.1494.7362-.4153 1.0019c-.2658.2657-.6264.415-1.0024.415z" fill="#3b99fc"/><path d="m19.7508 60.0464c4.0269 0 7.2914-3.2629 7.2914-7.2879 0-4.0249-3.2645-7.2878-7.2914-7.2878-4.027 0-7.2914 3.2629-7.2914 7.2878 0 4.025 3.2644 7.2879 7.2914 7.2879z" fill="#3b99fc"/></g></svg>