<svg fill="none" height="104" viewBox="0 0 132 104" width="132" xmlns="http://www.w3.org/2000/svg"><path d="m68.7568 48.4863h-23.8919v21.0811h23.8919z" fill="#3b99fc"/><path d="m56.0997 59.1223c5.7237-1.2569 11.1383-3.6456 15.9254-7.0255 4.7871-3.38 8.8501-7.683 11.95-12.6561 1.7599-2.8274 3.1783-5.8535 4.2255-9.015.0791-.2617.0535-.544-.0714-.7873-.1249-.2432-.3394-.4285-.5983-.5166-.2588-.0882-.5418-.0724-.7893.044-.2474.1164-.44.3244-.537.58-1.7969 5.2841-4.6331 10.1551-8.3414 14.3263-3.7083 4.1711-8.2138 7.558-13.2512 9.9611-2.8384 1.3562-5.8283 2.3694-8.9065 3.0182-1.3278.28-.9364 2.3516.3942 2.0709z" fill="#3f3d56"/><path d="m76.6395 34.463c3.8001-2.1401 7.6001-4.2802 11.4002-6.4203.1761-.0986.6689-.4719.853-.4273-.1476-.0358-.0136.0735-.0093.207.0059.1797.0286.3622.0353.5431.0413 1.1098.0615 2.2207.0922 3.3308l.1767 6.3841c.0372 1.3438 2.1411 1.5036 2.1035.144l-.2074-7.4944c-.0475-1.7175.3821-5.527-2.4007-5.1977-1.0041.1188-1.9326.8223-2.7891 1.3047l-3.4697 1.954-6.6914 3.7684c-1.1783.6636-.2767 2.57.9067 1.9035z" fill="#3f3d56"/><path d="m92.6486 19.6757c5.4333 0 9.8374-4.4046 9.8374-9.83786 0-5.43329-4.4041-9.83784-9.8374-9.83784s-9.8378 4.40455-9.8378 9.83784c0 5.43326 4.4045 9.83786 9.8378 9.83786z" fill="#3b99fc"/><path d="m54.7027 15.4595h-23.8919v21.0811h23.8919z" fill="#3b99fc"/><path d="m42.973 25.9258c-5.6656 1.487-10.9768 4.0914-15.6215 7.6602-4.6447 3.5689-8.5293 8.0301-11.4253 13.1216-1.644 2.8939-2.9387 5.9728-3.8569 9.172-.0636.2659-.0213.5462.1178.7816.1391.2355.3643.4077.6279.4804s.5452.0401.7853-.0908.42-.3499.5018-.6108c1.5909-5.3537 4.2374-10.3348 7.7835-14.6497 3.546-4.315 7.92-7.8764 12.864-10.4745 2.7841-1.4642 5.7328-2.5912 8.7838-3.3572 1.3146-.3318.7576-2.3655-.5604-2.0328z" fill="#3f3d56"/><path d="m23.4259 51.3911-11.0162 6.7917c-.1888.1164-.3744.2434-.5709.3469-.195.1027-.3956.0995-.2695.2233-.1701-.167-.1267-.7862-.1394-.9752l-.2146-3.186-.4291-6.3721c-.0907-1.3465-2.1995-1.3566-2.10815 0l.50379 7.4803c.1147 1.7032-.20261 5.2283 2.40496 5.0858 1.161-.0634 2.2672-1.0171 3.2186-1.6037l3.1475-1.9405 6.537-4.0302c1.1528-.7107.0952-2.535-1.064-1.8203z" fill="#3f3d56"/><path d="m10.4324 95.0966c5.4333 0 9.8379-4.4046 9.8379-9.8379s-4.4046-9.8378-9.8379-9.8378c-5.43325 0-9.837796 4.4045-9.837796 9.8378s4.404546 9.8379 9.837796 9.8379z" fill="#3b99fc"/><path d="m132 69.5677v-23.8919h-21.081v23.8919z" fill="#3b99fc"/><path d="m122.312 56.8448c-1.415 5.4029-3.896 10.4681-7.299 14.8969-3.403 4.4287-7.658 8.1315-12.514 10.89-2.7345 1.5551-5.6445 2.7786-8.6686 3.6444-.2609.0818-.4799.2617-.6108.5018s-.1634.5216-.0907.7853c.0727.2636.2449.4887.4803.6278s.5156.1814.7816.1179c5.6162-1.663 10.8432-4.432 15.3742-8.1441 4.531-3.7122 8.274-8.2927 11.01-13.4722 1.553-2.9436 2.751-6.0612 3.57-9.2874.332-1.3158-1.701-1.8772-2.033-.5604z" fill="#3f3d56"/><path d="m97.059 75.8882-4.0303 6.5371-1.9404 3.1475c-.5881.9539-1.5402 2.0558-1.6037 3.2185-.1425 2.6069 3.382 2.2903 5.0858 2.405l7.4806.5038c1.354.0912 1.348-2.0173 0-2.1081l-6.3724-.4291-3.0475-.2053c-.2333-.0157-.9201.0454-1.1137-.1487.1382.1386.0722-.0059.1662-.1606.1366-.225.2656-.4554.404-.6799l6.7917-11.0162c.7139-1.158-1.1088-2.218-1.8203-1.064z" fill="#3f3d56"/><path d="m59.6216 94.1621c0 5.4332 4.4045 9.8379 9.8378 9.8379s9.8378-4.4047 9.8378-9.8379c0-5.4333-4.4045-9.8379-9.8378-9.8379s-9.8378 4.4046-9.8378 9.8379z" fill="#3b99fc"/></svg>